<?xml version="1.0"?>
<svg xmlns="http://www.w3.org/2000/svg" viewBox="0 0 80 80">
    <path style="line-height:normal;text-indent:0;text-align:start;text-decoration-line:none;text-decoration-style:solid;text-decoration-color:#000;text-transform:none;block-progression:tb;isolation:auto;mix-blend-mode:normal" d="M 10.990234 9.9902344 A 1.0001 1.0001 0 0 0 10 11.128906 L 10 52 A 1.0001 1.0001 0 0 0 10.292969 52.707031 L 27.292969 69.707031 A 1.0001 1.0001 0 0 0 28 70 L 69 70 A 1.0001 1.0001 0 0 0 70 69 L 70 28 A 1.0001 1.0001 0 0 0 69.707031 27.292969 L 52.707031 10.292969 A 1.0001 1.0001 0 0 0 52 10 L 11.117188 10 A 1.0001 1.0001 0 0 0 10.990234 9.9902344 z M 13.414062 12 L 51.585938 12 L 66.585938 27 L 28.414062 27 L 13.414062 12 z M 12 13.414062 L 27 28.414062 L 27 66.585938 L 12 51.585938 L 12 13.414062 z M 29 29 L 31 29 A 1 1 0 0 0 32 30 A 1 1 0 0 0 33 29 L 37 29 A 1 1 0 0 0 38 30 A 1 1 0 0 0 39 29 L 43 29 A 1 1 0 0 0 44 30 A 1 1 0 0 0 45 29 L 49 29 A 1 1 0 0 0 50 30 A 1 1 0 0 0 51 29 L 55 29 A 1 1 0 0 0 56 30 A 1 1 0 0 0 57 29 L 61 29 A 1 1 0 0 0 62 30 A 1 1 0 0 0 63 29 L 67 29 A 1 1 0 0 0 68 30 L 68 34 A 1 1 0 0 0 67 35 A 1 1 0 0 0 68 36 L 68 40 A 1 1 0 0 0 67 41 A 1 1 0 0 0 68 42 L 68 46 A 1 1 0 0 0 67 47 A 1 1 0 0 0 68 48 L 68 52 A 1 1 0 0 0 67 53 A 1 1 0 0 0 68 54 L 68 58 A 1 1 0 0 0 67 59 A 1 1 0 0 0 68 60 L 68 64 A 1 1 0 0 0 67 65 A 1 1 0 0 0 68 66 L 68 68 L 66 68 A 1 1 0 0 0 65 67 A 1 1 0 0 0 64 68 L 60 68 A 1 1 0 0 0 59 67 A 1 1 0 0 0 58 68 L 54 68 A 1 1 0 0 0 53 67 A 1 1 0 0 0 52 68 L 48 68 A 1 1 0 0 0 47 67 A 1 1 0 0 0 46 68 L 42 68 A 1 1 0 0 0 41 67 A 1 1 0 0 0 40 68 L 36 68 A 1 1 0 0 0 35 67 A 1 1 0 0 0 34 68 L 30 68 A 1 1 0 0 0 29 67 L 29 63 A 1 1 0 0 0 30 62 A 1 1 0 0 0 29 61 L 29 57 A 1 1 0 0 0 30 56 A 1 1 0 0 0 29 55 L 29 51 A 1 1 0 0 0 30 50 A 1 1 0 0 0 29 49 L 29 45 A 1 1 0 0 0 30 44 A 1 1 0 0 0 29 43 L 29 39 A 1 1 0 0 0 30 38 A 1 1 0 0 0 29 37 L 29 33 A 1 1 0 0 0 30 32 A 1 1 0 0 0 29 31 L 29 29 z M 35 31 A 1 1 0 0 0 34 32 A 1 1 0 0 0 35 33 A 1 1 0 0 0 36 32 A 1 1 0 0 0 35 31 z M 41 31 A 1 1 0 0 0 40 32 A 1 1 0 0 0 41 33 A 1 1 0 0 0 42 32 A 1 1 0 0 0 41 31 z M 47 31 A 1 1 0 0 0 46 32 A 1 1 0 0 0 47 33 A 1 1 0 0 0 48 32 A 1 1 0 0 0 47 31 z M 53 31 A 1 1 0 0 0 52 32 A 1 1 0 0 0 53 33 A 1 1 0 0 0 54 32 A 1 1 0 0 0 53 31 z M 59 31 A 1 1 0 0 0 58 32 A 1 1 0 0 0 59 33 A 1 1 0 0 0 60 32 A 1 1 0 0 0 59 31 z M 65 31 A 1 1 0 0 0 64 32 A 1 1 0 0 0 65 33 A 1 1 0 0 0 66 32 A 1 1 0 0 0 65 31 z M 32 34 A 1 1 0 0 0 31 35 A 1 1 0 0 0 32 36 A 1 1 0 0 0 33 35 A 1 1 0 0 0 32 34 z M 38 34 A 1 1 0 0 0 37 35 A 1 1 0 0 0 38 36 A 1 1 0 0 0 39 35 A 1 1 0 0 0 38 34 z M 44 34 A 1 1 0 0 0 43 35 A 1 1 0 0 0 44 36 A 1 1 0 0 0 45 35 A 1 1 0 0 0 44 34 z M 50 34 A 1 1 0 0 0 49 35 A 1 1 0 0 0 50 36 A 1 1 0 0 0 51 35 A 1 1 0 0 0 50 34 z M 56 34 A 1 1 0 0 0 55 35 A 1 1 0 0 0 56 36 A 1 1 0 0 0 57 35 A 1 1 0 0 0 56 34 z M 62 34 A 1 1 0 0 0 61 35 A 1 1 0 0 0 62 36 A 1 1 0 0 0 63 35 A 1 1 0 0 0 62 34 z M 35 37 A 1 1 0 0 0 34 38 A 1 1 0 0 0 35 39 A 1 1 0 0 0 36 38 A 1 1 0 0 0 35 37 z M 41 37 A 1 1 0 0 0 40 38 A 1 1 0 0 0 41 39 A 1 1 0 0 0 42 38 A 1 1 0 0 0 41 37 z M 47 37 A 1 1 0 0 0 46 38 A 1 1 0 0 0 47 39 A 1 1 0 0 0 48 38 A 1 1 0 0 0 47 37 z M 53 37 A 1 1 0 0 0 52 38 A 1 1 0 0 0 53 39 A 1 1 0 0 0 54 38 A 1 1 0 0 0 53 37 z M 59 37 A 1 1 0 0 0 58 38 A 1 1 0 0 0 59 39 A 1 1 0 0 0 60 38 A 1 1 0 0 0 59 37 z M 65 37 A 1 1 0 0 0 64 38 A 1 1 0 0 0 65 39 A 1 1 0 0 0 66 38 A 1 1 0 0 0 65 37 z M 32 40 A 1 1 0 0 0 31 41 A 1 1 0 0 0 32 42 A 1 1 0 0 0 33 41 A 1 1 0 0 0 32 40 z M 38 40 A 1 1 0 0 0 37 41 A 1 1 0 0 0 38 42 A 1 1 0 0 0 39 41 A 1 1 0 0 0 38 40 z M 44 40 A 1 1 0 0 0 43 41 A 1 1 0 0 0 44 42 A 1 1 0 0 0 45 41 A 1 1 0 0 0 44 40 z M 50 40 A 1 1 0 0 0 49 41 A 1 1 0 0 0 50 42 A 1 1 0 0 0 51 41 A 1 1 0 0 0 50 40 z M 56 40 A 1 1 0 0 0 55 41 A 1 1 0 0 0 56 42 A 1 1 0 0 0 57 41 A 1 1 0 0 0 56 40 z M 62 40 A 1 1 0 0 0 61 41 A 1 1 0 0 0 62 42 A 1 1 0 0 0 63 41 A 1 1 0 0 0 62 40 z M 35 43 A 1 1 0 0 0 34 44 A 1 1 0 0 0 35 45 A 1 1 0 0 0 36 44 A 1 1 0 0 0 35 43 z M 41 43 A 1 1 0 0 0 40 44 A 1 1 0 0 0 41 45 A 1 1 0 0 0 42 44 A 1 1 0 0 0 41 43 z M 47 43 A 1 1 0 0 0 46 44 A 1 1 0 0 0 47 45 A 1 1 0 0 0 48 44 A 1 1 0 0 0 47 43 z M 53 43 A 1 1 0 0 0 52 44 A 1 1 0 0 0 53 45 A 1 1 0 0 0 54 44 A 1 1 0 0 0 53 43 z M 59 43 A 1 1 0 0 0 58 44 A 1 1 0 0 0 59 45 A 1 1 0 0 0 60 44 A 1 1 0 0 0 59 43 z M 65 43 A 1 1 0 0 0 64 44 A 1 1 0 0 0 65 45 A 1 1 0 0 0 66 44 A 1 1 0 0 0 65 43 z M 32 46 A 1 1 0 0 0 31 47 A 1 1 0 0 0 32 48 A 1 1 0 0 0 33 47 A 1 1 0 0 0 32 46 z M 38 46 A 1 1 0 0 0 37 47 A 1 1 0 0 0 38 48 A 1 1 0 0 0 39 47 A 1 1 0 0 0 38 46 z M 44 46 A 1 1 0 0 0 43 47 A 1 1 0 0 0 44 48 A 1 1 0 0 0 45 47 A 1 1 0 0 0 44 46 z M 50 46 A 1 1 0 0 0 49 47 A 1 1 0 0 0 50 48 A 1 1 0 0 0 51 47 A 1 1 0 0 0 50 46 z M 56 46 A 1 1 0 0 0 55 47 A 1 1 0 0 0 56 48 A 1 1 0 0 0 57 47 A 1 1 0 0 0 56 46 z M 62 46 A 1 1 0 0 0 61 47 A 1 1 0 0 0 62 48 A 1 1 0 0 0 63 47 A 1 1 0 0 0 62 46 z M 35 49 A 1 1 0 0 0 34 50 A 1 1 0 0 0 35 51 A 1 1 0 0 0 36 50 A 1 1 0 0 0 35 49 z M 41 49 A 1 1 0 0 0 40 50 A 1 1 0 0 0 41 51 A 1 1 0 0 0 42 50 A 1 1 0 0 0 41 49 z M 47 49 A 1 1 0 0 0 46 50 A 1 1 0 0 0 47 51 A 1 1 0 0 0 48 50 A 1 1 0 0 0 47 49 z M 53 49 A 1 1 0 0 0 52 50 A 1 1 0 0 0 53 51 A 1 1 0 0 0 54 50 A 1 1 0 0 0 53 49 z M 59 49 A 1 1 0 0 0 58 50 A 1 1 0 0 0 59 51 A 1 1 0 0 0 60 50 A 1 1 0 0 0 59 49 z M 65 49 A 1 1 0 0 0 64 50 A 1 1 0 0 0 65 51 A 1 1 0 0 0 66 50 A 1 1 0 0 0 65 49 z M 32 52 A 1 1 0 0 0 31 53 A 1 1 0 0 0 32 54 A 1 1 0 0 0 33 53 A 1 1 0 0 0 32 52 z M 38 52 A 1 1 0 0 0 37 53 A 1 1 0 0 0 38 54 A 1 1 0 0 0 39 53 A 1 1 0 0 0 38 52 z M 44 52 A 1 1 0 0 0 43 53 A 1 1 0 0 0 44 54 A 1 1 0 0 0 45 53 A 1 1 0 0 0 44 52 z M 50 52 A 1 1 0 0 0 49 53 A 1 1 0 0 0 50 54 A 1 1 0 0 0 51 53 A 1 1 0 0 0 50 52 z M 56 52 A 1 1 0 0 0 55 53 A 1 1 0 0 0 56 54 A 1 1 0 0 0 57 53 A 1 1 0 0 0 56 52 z M 62 52 A 1 1 0 0 0 61 53 A 1 1 0 0 0 62 54 A 1 1 0 0 0 63 53 A 1 1 0 0 0 62 52 z M 35 55 A 1 1 0 0 0 34 56 A 1 1 0 0 0 35 57 A 1 1 0 0 0 36 56 A 1 1 0 0 0 35 55 z M 41 55 A 1 1 0 0 0 40 56 A 1 1 0 0 0 41 57 A 1 1 0 0 0 42 56 A 1 1 0 0 0 41 55 z M 47 55 A 1 1 0 0 0 46 56 A 1 1 0 0 0 47 57 A 1 1 0 0 0 48 56 A 1 1 0 0 0 47 55 z M 53 55 A 1 1 0 0 0 52 56 A 1 1 0 0 0 53 57 A 1 1 0 0 0 54 56 A 1 1 0 0 0 53 55 z M 59 55 A 1 1 0 0 0 58 56 A 1 1 0 0 0 59 57 A 1 1 0 0 0 60 56 A 1 1 0 0 0 59 55 z M 65 55 A 1 1 0 0 0 64 56 A 1 1 0 0 0 65 57 A 1 1 0 0 0 66 56 A 1 1 0 0 0 65 55 z M 32 58 A 1 1 0 0 0 31 59 A 1 1 0 0 0 32 60 A 1 1 0 0 0 33 59 A 1 1 0 0 0 32 58 z M 38 58 A 1 1 0 0 0 37 59 A 1 1 0 0 0 38 60 A 1 1 0 0 0 39 59 A 1 1 0 0 0 38 58 z M 44 58 A 1 1 0 0 0 43 59 A 1 1 0 0 0 44 60 A 1 1 0 0 0 45 59 A 1 1 0 0 0 44 58 z M 50 58 A 1 1 0 0 0 49 59 A 1 1 0 0 0 50 60 A 1 1 0 0 0 51 59 A 1 1 0 0 0 50 58 z M 56 58 A 1 1 0 0 0 55 59 A 1 1 0 0 0 56 60 A 1 1 0 0 0 57 59 A 1 1 0 0 0 56 58 z M 62 58 A 1 1 0 0 0 61 59 A 1 1 0 0 0 62 60 A 1 1 0 0 0 63 59 A 1 1 0 0 0 62 58 z M 35 61 A 1 1 0 0 0 34 62 A 1 1 0 0 0 35 63 A 1 1 0 0 0 36 62 A 1 1 0 0 0 35 61 z M 41 61 A 1 1 0 0 0 40 62 A 1 1 0 0 0 41 63 A 1 1 0 0 0 42 62 A 1 1 0 0 0 41 61 z M 47 61 A 1 1 0 0 0 46 62 A 1 1 0 0 0 47 63 A 1 1 0 0 0 48 62 A 1 1 0 0 0 47 61 z M 53 61 A 1 1 0 0 0 52 62 A 1 1 0 0 0 53 63 A 1 1 0 0 0 54 62 A 1 1 0 0 0 53 61 z M 59 61 A 1 1 0 0 0 58 62 A 1 1 0 0 0 59 63 A 1 1 0 0 0 60 62 A 1 1 0 0 0 59 61 z M 65 61 A 1 1 0 0 0 64 62 A 1 1 0 0 0 65 63 A 1 1 0 0 0 66 62 A 1 1 0 0 0 65 61 z M 32 64 A 1 1 0 0 0 31 65 A 1 1 0 0 0 32 66 A 1 1 0 0 0 33 65 A 1 1 0 0 0 32 64 z M 38 64 A 1 1 0 0 0 37 65 A 1 1 0 0 0 38 66 A 1 1 0 0 0 39 65 A 1 1 0 0 0 38 64 z M 44 64 A 1 1 0 0 0 43 65 A 1 1 0 0 0 44 66 A 1 1 0 0 0 45 65 A 1 1 0 0 0 44 64 z M 50 64 A 1 1 0 0 0 49 65 A 1 1 0 0 0 50 66 A 1 1 0 0 0 51 65 A 1 1 0 0 0 50 64 z M 56 64 A 1 1 0 0 0 55 65 A 1 1 0 0 0 56 66 A 1 1 0 0 0 57 65 A 1 1 0 0 0 56 64 z M 62 64 A 1 1 0 0 0 61 65 A 1 1 0 0 0 62 66 A 1 1 0 0 0 63 65 A 1 1 0 0 0 62 64 z"/>
</svg>
