<?xml version="1.0"?>
<svg xmlns="http://www.w3.org/2000/svg" viewBox="0 0 80 80">
    <path style="line-height:normal;text-indent:0;text-align:start;text-decoration-line:none;text-decoration-style:solid;text-decoration-color:#000;text-transform:none;block-progression:tb;isolation:auto;mix-blend-mode:normal" d="M 10.990234 9.9902344 A 1.0001 1.0001 0 0 0 10 11.128906 L 10 52 A 1.0001 1.0001 0 0 0 10.292969 52.707031 L 27.292969 69.707031 A 1.0001 1.0001 0 0 0 28 70 L 69 70 A 1.0001 1.0001 0 0 0 70 69 L 70 28 A 1.0001 1.0001 0 0 0 69.707031 27.292969 L 52.707031 10.292969 A 1.0001 1.0001 0 0 0 52 10 L 11.117188 10 A 1.0001 1.0001 0 0 0 10.990234 9.9902344 z M 13.414062 12 L 51.585938 12 L 66.585938 27 L 28.414062 27 L 13.414062 12 z M 12 13.414062 L 27 28.414062 L 27 29 A 1 1 0 0 0 26 30 A 1 1 0 0 0 27 31 L 27 35 A 1 1 0 0 0 26 36 A 1 1 0 0 0 27 37 L 27 41 A 1 1 0 0 0 26 42 A 1 1 0 0 0 27 43 L 27 47 A 1 1 0 0 0 26 48 A 1 1 0 0 0 27 49 L 27 53 A 1 1 0 0 0 26 54 A 1 1 0 0 0 27 55 L 27 59 A 1 1 0 0 0 26 60 A 1 1 0 0 0 27 61 L 27 66.585938 L 24.349609 63.935547 A 1 1 0 0 0 25 63 A 1 1 0 0 0 24 62 A 1 1 0 0 0 23.064453 62.650391 L 21.349609 60.935547 A 1 1 0 0 0 22 60 A 1 1 0 0 0 21 59 A 1 1 0 0 0 20.064453 59.650391 L 18.349609 57.935547 A 1 1 0 0 0 19 57 A 1 1 0 0 0 18 56 A 1 1 0 0 0 17.064453 56.650391 L 15.349609 54.935547 A 1 1 0 0 0 16 54 A 1 1 0 0 0 15 53 A 1 1 0 0 0 14.064453 53.650391 L 12.349609 51.935547 A 1 1 0 0 0 13 51 A 1 1 0 0 0 12 50 L 12 46 A 1 1 0 0 0 13 45 A 1 1 0 0 0 12 44 L 12 40 A 1 1 0 0 0 13 39 A 1 1 0 0 0 12 38 L 12 34 A 1 1 0 0 0 13 33 A 1 1 0 0 0 12 32 L 12 28 A 1 1 0 0 0 13 27 A 1 1 0 0 0 12 26 L 12 22 A 1 1 0 0 0 13 21 A 1 1 0 0 0 12 20 L 12 16 A 1 1 0 0 0 13 15 A 1 1 0 0 0 12 14 L 12 13.414062 z M 15 17 A 1 1 0 0 0 14 18 A 1 1 0 0 0 15 19 A 1 1 0 0 0 16 18 A 1 1 0 0 0 15 17 z M 18 20 A 1 1 0 0 0 17 21 A 1 1 0 0 0 18 22 A 1 1 0 0 0 19 21 A 1 1 0 0 0 18 20 z M 15 23 A 1 1 0 0 0 14 24 A 1 1 0 0 0 15 25 A 1 1 0 0 0 16 24 A 1 1 0 0 0 15 23 z M 21 23 A 1 1 0 0 0 20 24 A 1 1 0 0 0 21 25 A 1 1 0 0 0 22 24 A 1 1 0 0 0 21 23 z M 18 26 A 1 1 0 0 0 17 27 A 1 1 0 0 0 18 28 A 1 1 0 0 0 19 27 A 1 1 0 0 0 18 26 z M 24 26 A 1 1 0 0 0 23 27 A 1 1 0 0 0 24 28 A 1 1 0 0 0 25 27 A 1 1 0 0 0 24 26 z M 15 29 A 1 1 0 0 0 14 30 A 1 1 0 0 0 15 31 A 1 1 0 0 0 16 30 A 1 1 0 0 0 15 29 z M 21 29 A 1 1 0 0 0 20 30 A 1 1 0 0 0 21 31 A 1 1 0 0 0 22 30 A 1 1 0 0 0 21 29 z M 29 29 L 68 29 L 68 68 L 29 68 L 29 29 z M 18 32 A 1 1 0 0 0 17 33 A 1 1 0 0 0 18 34 A 1 1 0 0 0 19 33 A 1 1 0 0 0 18 32 z M 24 32 A 1 1 0 0 0 23 33 A 1 1 0 0 0 24 34 A 1 1 0 0 0 25 33 A 1 1 0 0 0 24 32 z M 15 35 A 1 1 0 0 0 14 36 A 1 1 0 0 0 15 37 A 1 1 0 0 0 16 36 A 1 1 0 0 0 15 35 z M 21 35 A 1 1 0 0 0 20 36 A 1 1 0 0 0 21 37 A 1 1 0 0 0 22 36 A 1 1 0 0 0 21 35 z M 18 38 A 1 1 0 0 0 17 39 A 1 1 0 0 0 18 40 A 1 1 0 0 0 19 39 A 1 1 0 0 0 18 38 z M 24 38 A 1 1 0 0 0 23 39 A 1 1 0 0 0 24 40 A 1 1 0 0 0 25 39 A 1 1 0 0 0 24 38 z M 15 41 A 1 1 0 0 0 14 42 A 1 1 0 0 0 15 43 A 1 1 0 0 0 16 42 A 1 1 0 0 0 15 41 z M 21 41 A 1 1 0 0 0 20 42 A 1 1 0 0 0 21 43 A 1 1 0 0 0 22 42 A 1 1 0 0 0 21 41 z M 18 44 A 1 1 0 0 0 17 45 A 1 1 0 0 0 18 46 A 1 1 0 0 0 19 45 A 1 1 0 0 0 18 44 z M 24 44 A 1 1 0 0 0 23 45 A 1 1 0 0 0 24 46 A 1 1 0 0 0 25 45 A 1 1 0 0 0 24 44 z M 15 47 A 1 1 0 0 0 14 48 A 1 1 0 0 0 15 49 A 1 1 0 0 0 16 48 A 1 1 0 0 0 15 47 z M 21 47 A 1 1 0 0 0 20 48 A 1 1 0 0 0 21 49 A 1 1 0 0 0 22 48 A 1 1 0 0 0 21 47 z M 18 50 A 1 1 0 0 0 17 51 A 1 1 0 0 0 18 52 A 1 1 0 0 0 19 51 A 1 1 0 0 0 18 50 z M 24 50 A 1 1 0 0 0 23 51 A 1 1 0 0 0 24 52 A 1 1 0 0 0 25 51 A 1 1 0 0 0 24 50 z M 21 53 A 1 1 0 0 0 20 54 A 1 1 0 0 0 21 55 A 1 1 0 0 0 22 54 A 1 1 0 0 0 21 53 z M 24 56 A 1 1 0 0 0 23 57 A 1 1 0 0 0 24 58 A 1 1 0 0 0 25 57 A 1 1 0 0 0 24 56 z"/>
</svg>
