<?xml version="1.0"?>
<svg xmlns="http://www.w3.org/2000/svg" viewBox="0 0 80 80">
    <path style="line-height:normal;text-indent:0;text-align:start;text-decoration-line:none;text-decoration-style:solid;text-decoration-color:#000;text-transform:none;block-progression:tb;isolation:auto;mix-blend-mode:normal" d="M 10.990234 9.9902344 A 1.0001 1.0001 0 0 0 10 11.128906 L 10 52 A 1.0001 1.0001 0 0 0 10.292969 52.707031 L 27.292969 69.707031 A 1.0001 1.0001 0 0 0 28 70 L 69 70 A 1.0001 1.0001 0 0 0 70 69 L 70 28 A 1.0001 1.0001 0 0 0 69.707031 27.292969 L 52.707031 10.292969 A 1.0001 1.0001 0 0 0 52 10 L 11.117188 10 A 1.0001 1.0001 0 0 0 10.990234 9.9902344 z M 13.414062 12 L 14 12 A 1 1 0 0 0 15 13 A 1 1 0 0 0 16 12 L 20 12 A 1 1 0 0 0 21 13 A 1 1 0 0 0 22 12 L 26 12 A 1 1 0 0 0 27 13 A 1 1 0 0 0 28 12 L 32 12 A 1 1 0 0 0 33 13 A 1 1 0 0 0 34 12 L 38 12 A 1 1 0 0 0 39 13 A 1 1 0 0 0 40 12 L 44 12 A 1 1 0 0 0 45 13 A 1 1 0 0 0 46 12 L 50 12 A 1 1 0 0 0 51 13 A 1 1 0 0 0 51.935547 12.349609 L 53.650391 14.064453 A 1 1 0 0 0 53 15 A 1 1 0 0 0 54 16 A 1 1 0 0 0 54.935547 15.349609 L 56.650391 17.064453 A 1 1 0 0 0 56 18 A 1 1 0 0 0 57 19 A 1 1 0 0 0 57.935547 18.349609 L 59.650391 20.064453 A 1 1 0 0 0 59 21 A 1 1 0 0 0 60 22 A 1 1 0 0 0 60.935547 21.349609 L 62.650391 23.064453 A 1 1 0 0 0 62 24 A 1 1 0 0 0 63 25 A 1 1 0 0 0 63.935547 24.349609 L 65.650391 26.064453 A 1 1 0 0 0 65 27 L 61 27 A 1 1 0 0 0 60 26 A 1 1 0 0 0 59 27 L 55 27 A 1 1 0 0 0 54 26 A 1 1 0 0 0 53 27 L 49 27 A 1 1 0 0 0 48 26 A 1 1 0 0 0 47 27 L 43 27 A 1 1 0 0 0 42 26 A 1 1 0 0 0 41 27 L 37 27 A 1 1 0 0 0 36 26 A 1 1 0 0 0 35 27 L 31 27 A 1 1 0 0 0 30 26 A 1 1 0 0 0 29 27 L 28.414062 27 L 13.414062 12 z M 12 13.414062 L 27 28.414062 L 27 66.585938 L 12 51.585938 L 12 13.414062 z M 18 14 A 1 1 0 0 0 17 15 A 1 1 0 0 0 18 16 A 1 1 0 0 0 19 15 A 1 1 0 0 0 18 14 z M 24 14 A 1 1 0 0 0 23 15 A 1 1 0 0 0 24 16 A 1 1 0 0 0 25 15 A 1 1 0 0 0 24 14 z M 30 14 A 1 1 0 0 0 29 15 A 1 1 0 0 0 30 16 A 1 1 0 0 0 31 15 A 1 1 0 0 0 30 14 z M 36 14 A 1 1 0 0 0 35 15 A 1 1 0 0 0 36 16 A 1 1 0 0 0 37 15 A 1 1 0 0 0 36 14 z M 42 14 A 1 1 0 0 0 41 15 A 1 1 0 0 0 42 16 A 1 1 0 0 0 43 15 A 1 1 0 0 0 42 14 z M 48 14 A 1 1 0 0 0 47 15 A 1 1 0 0 0 48 16 A 1 1 0 0 0 49 15 A 1 1 0 0 0 48 14 z M 21 17 A 1 1 0 0 0 20 18 A 1 1 0 0 0 21 19 A 1 1 0 0 0 22 18 A 1 1 0 0 0 21 17 z M 27 17 A 1 1 0 0 0 26 18 A 1 1 0 0 0 27 19 A 1 1 0 0 0 28 18 A 1 1 0 0 0 27 17 z M 33 17 A 1 1 0 0 0 32 18 A 1 1 0 0 0 33 19 A 1 1 0 0 0 34 18 A 1 1 0 0 0 33 17 z M 39 17 A 1 1 0 0 0 38 18 A 1 1 0 0 0 39 19 A 1 1 0 0 0 40 18 A 1 1 0 0 0 39 17 z M 45 17 A 1 1 0 0 0 44 18 A 1 1 0 0 0 45 19 A 1 1 0 0 0 46 18 A 1 1 0 0 0 45 17 z M 51 17 A 1 1 0 0 0 50 18 A 1 1 0 0 0 51 19 A 1 1 0 0 0 52 18 A 1 1 0 0 0 51 17 z M 24 20 A 1 1 0 0 0 23 21 A 1 1 0 0 0 24 22 A 1 1 0 0 0 25 21 A 1 1 0 0 0 24 20 z M 30 20 A 1 1 0 0 0 29 21 A 1 1 0 0 0 30 22 A 1 1 0 0 0 31 21 A 1 1 0 0 0 30 20 z M 36 20 A 1 1 0 0 0 35 21 A 1 1 0 0 0 36 22 A 1 1 0 0 0 37 21 A 1 1 0 0 0 36 20 z M 42 20 A 1 1 0 0 0 41 21 A 1 1 0 0 0 42 22 A 1 1 0 0 0 43 21 A 1 1 0 0 0 42 20 z M 48 20 A 1 1 0 0 0 47 21 A 1 1 0 0 0 48 22 A 1 1 0 0 0 49 21 A 1 1 0 0 0 48 20 z M 54 20 A 1 1 0 0 0 53 21 A 1 1 0 0 0 54 22 A 1 1 0 0 0 55 21 A 1 1 0 0 0 54 20 z M 27 23 A 1 1 0 0 0 26 24 A 1 1 0 0 0 27 25 A 1 1 0 0 0 28 24 A 1 1 0 0 0 27 23 z M 33 23 A 1 1 0 0 0 32 24 A 1 1 0 0 0 33 25 A 1 1 0 0 0 34 24 A 1 1 0 0 0 33 23 z M 39 23 A 1 1 0 0 0 38 24 A 1 1 0 0 0 39 25 A 1 1 0 0 0 40 24 A 1 1 0 0 0 39 23 z M 45 23 A 1 1 0 0 0 44 24 A 1 1 0 0 0 45 25 A 1 1 0 0 0 46 24 A 1 1 0 0 0 45 23 z M 51 23 A 1 1 0 0 0 50 24 A 1 1 0 0 0 51 25 A 1 1 0 0 0 52 24 A 1 1 0 0 0 51 23 z M 57 23 A 1 1 0 0 0 56 24 A 1 1 0 0 0 57 25 A 1 1 0 0 0 58 24 A 1 1 0 0 0 57 23 z M 29 29 L 68 29 L 68 68 L 29 68 L 29 29 z"/>
</svg>
