<?xml version="1.0" encoding="utf-8"?>
<!-- Generator: Adobe Illustrator 22.1.0, SVG Export Plug-In . SVG Version: 6.00 Build 0)  -->
<svg version="1.1" id="Calque_1" xmlns="http://www.w3.org/2000/svg" xmlns:xlink="http://www.w3.org/1999/xlink" x="0px" y="0px"
	 viewBox="0 0 240.9 155.9" style="enable-background:new 0 0 240.9 155.9;" xml:space="preserve">
<style type="text/css">
	.st0{fill:#14182D;}
	.st1{fill:url(#SVGID_1_);}
	.st2{fill:url(#SVGID_2_);}
	.st3{fill:url(#SVGID_3_);}
	.st4{fill:url(#SVGID_4_);}
	.st5{fill:url(#SVGID_5_);}
	.st6{fill:url(#SVGID_6_);}
	.st7{fill:url(#SVGID_7_);}
	.st8{fill:url(#SVGID_8_);}
	.st9{fill:url(#SVGID_9_);}
	.st10{fill:url(#SVGID_10_);}
	.st11{fill:url(#SVGID_11_);}
	.st12{fill:url(#SVGID_12_);}
	.st13{fill:url(#SVGID_13_);}
	.st14{fill:url(#SVGID_14_);}
	.st15{fill:url(#SVGID_15_);}
	.st16{fill:url(#SVGID_16_);}
	.st17{fill:url(#SVGID_17_);}
	.st18{fill:url(#SVGID_18_);}
	.st19{fill:url(#SVGID_19_);}
	.st20{fill:url(#SVGID_20_);}
	.st21{fill:url(#SVGID_21_);}
	.st22{fill:url(#SVGID_22_);}
</style>
<rect x="-1" y="-0.9" class="st0" width="242.6" height="156.5"/>
<g>
	<linearGradient id="SVGID_1_" gradientUnits="userSpaceOnUse" x1="55.189" y1="97.2405" x2="178.529" y2="78.3171">
		<stop  offset="0" style="stop-color:#7FC4A4"/>
		<stop  offset="2.682173e-02" style="stop-color:#7DC3A6"/>
		<stop  offset="0.694" style="stop-color:#5CA8CC"/>
		<stop  offset="1" style="stop-color:#509CD6"/>
	</linearGradient>
	<path class="st1" d="M73.2,87.6c-0.2-0.1-0.4-0.2-0.7-0.2h-5.4c-0.5,0-0.8,0.2-1.1,0.7c-0.1,0.2-0.2,0.4-0.2,0.6v13.3
		c0,0.5,0.3,0.9,0.8,1.2c0.2,0.1,0.3,0.1,0.4,0.1h0.5c0.2,0,0.5-0.1,0.7-0.4c0.2-0.3,0.4-0.6,0.4-1V90.1h4c0.4,0,0.8-0.2,1.1-0.6
		c0.1-0.3,0.2-0.5,0.2-0.7C73.8,88.3,73.6,87.9,73.2,87.6z"/>
	<linearGradient id="SVGID_2_" gradientUnits="userSpaceOnUse" x1="54.0736" y1="89.9707" x2="177.4136" y2="71.0473">
		<stop  offset="0" style="stop-color:#7FC4A4"/>
		<stop  offset="2.682173e-02" style="stop-color:#7DC3A6"/>
		<stop  offset="0.694" style="stop-color:#5CA8CC"/>
		<stop  offset="1" style="stop-color:#509CD6"/>
	</linearGradient>
	<path class="st2" d="M62.6,87.6c-0.2-0.1-0.4-0.2-0.6-0.2h-0.1c-0.4,0-0.8,0.2-1.1,0.7c-0.1,0.2-0.2,0.5-0.2,0.7
		c0,0.5,0.2,0.9,0.7,1.2c0.2,0.1,0.4,0.1,0.6,0.1H62c0.5,0,0.8-0.2,1.1-0.7c0.1-0.2,0.2-0.4,0.2-0.7C63.2,88.3,63,87.9,62.6,87.6z"
		/>
	<linearGradient id="SVGID_3_" gradientUnits="userSpaceOnUse" x1="55.5449" y1="99.5598" x2="178.8848" y2="80.6365">
		<stop  offset="0" style="stop-color:#7FC4A4"/>
		<stop  offset="2.682173e-02" style="stop-color:#7DC3A6"/>
		<stop  offset="0.694" style="stop-color:#5CA8CC"/>
		<stop  offset="1" style="stop-color:#509CD6"/>
	</linearGradient>
	<path class="st3" d="M82.7,87.4h-0.1c-0.1,0-0.3,0-0.4,0.1c-0.6,0.3-0.9,0.7-0.9,1.3V102c0,0.3,0.1,0.7,0.3,0.9
		c0.3,0.3,0.6,0.4,0.8,0.4h0.5c0.1,0,0.1,0,0.3-0.1c0.6-0.3,0.9-0.7,0.9-1.2V88.7c0-0.2-0.1-0.4-0.2-0.6
		C83.6,87.7,83.2,87.4,82.7,87.4z"/>
	<linearGradient id="SVGID_4_" gradientUnits="userSpaceOnUse" x1="55.9177" y1="101.99" x2="179.2577" y2="83.0666">
		<stop  offset="0" style="stop-color:#7FC4A4"/>
		<stop  offset="2.682173e-02" style="stop-color:#7DC3A6"/>
		<stop  offset="0.694" style="stop-color:#5CA8CC"/>
		<stop  offset="1" style="stop-color:#509CD6"/>
	</linearGradient>
	<path class="st4" d="M102.7,100.7h-6.5v-12c0-0.1,0-0.3-0.1-0.5c-0.3-0.5-0.7-0.8-1.2-0.8c-0.1,0-0.2,0-0.4,0c-0.7,0.2-1,0.7-1,1.3
		v13c0,0,0,0.1,0,0.1v0.1c0,0.3,0.1,0.5,0.3,0.8c0,0,0,0,0.1,0c0,0,0,0,0,0c0,0,0.1,0.1,0.1,0.1c0.2,0.2,0.4,0.3,0.6,0.3h0h0.5h8
		c0.1,0,0.2,0,0.4-0.1c0.5-0.3,0.7-0.7,0.7-1.1V102c0-0.1,0-0.2,0-0.3C103.9,101,103.4,100.7,102.7,100.7z"/>
	<linearGradient id="SVGID_5_" gradientUnits="userSpaceOnUse" x1="56.3863" y1="105.044" x2="179.7263" y2="86.1206">
		<stop  offset="0" style="stop-color:#7FC4A4"/>
		<stop  offset="2.682173e-02" style="stop-color:#7DC3A6"/>
		<stop  offset="0.694" style="stop-color:#5CA8CC"/>
		<stop  offset="1" style="stop-color:#509CD6"/>
	</linearGradient>
	<path class="st5" d="M117.9,90.5c-0.7-1.5-1.1-2.2-1.2-2.3c-0.3-0.4-0.7-0.6-1.1-0.6h-0.1c-0.5,0-0.9,0.2-1.2,0.7
		c-2.4,4.7-6.5,12.9-6.6,13c-0.1,0.3-0.1,0.5-0.1,0.5c0,0.6,0.3,1,0.8,1.3c0.1,0,0.2,0.1,0.2,0.1c0,0,0,0,0,0c0.1,0,0.3,0.1,0.4,0.1
		c0.2,0,0.4-0.1,0.6-0.1c0,0,0,0,0,0c0.1-0.1,0.3-0.2,0.4-0.3c0,0,0,0,0,0c0,0,0,0,0,0c0-0.1,0.1-0.1,0.1-0.2c0-0.1,3.7-7.2,5-9.8
		c0.1-0.1,0.2-0.1,0.3-0.1c0.2,0,0.4,0.2,0.5,0.5l4.8,9.4c0.2,0.3,0.5,0.5,0.8,0.6c0,0,0.1,0,0.1,0h0.5c0.2,0,0.5-0.1,0.8-0.4
		c0.3-0.3,0.4-0.7,0.4-1.1c0-0.3-0.2-0.8-0.6-1.6C122.9,100.3,121.2,97,117.9,90.5z"/>
	<linearGradient id="SVGID_6_" gradientUnits="userSpaceOnUse" x1="56.8374" y1="107.9842" x2="180.1774" y2="89.0609">
		<stop  offset="0" style="stop-color:#7FC4A4"/>
		<stop  offset="2.682173e-02" style="stop-color:#7DC3A6"/>
		<stop  offset="0.694" style="stop-color:#5CA8CC"/>
		<stop  offset="1" style="stop-color:#509CD6"/>
	</linearGradient>
	<path class="st6" d="M138.9,87.4c-0.4,0-0.7,0.1-1,0.4c-4.4,3.5-6.8,5.3-7.1,5.5c-0.6,0.5-0.9,0.8-1.1,0.8
		c-0.5,0.3-0.7,0.7-0.7,1.2v0.1c0,0.1,0,0.3,0.1,0.5c0.1,0.4,0.4,0.6,0.7,0.8c0,0,2.6,2,7.6,6c0.5,0.4,0.9,0.7,1.2,0.7h0.5
		c0.1,0,0.2,0,0.4-0.1c0.6-0.3,0.9-0.7,0.9-1.3v0c0-0.4-0.1-0.7-0.4-1l-3.1-2.4c-2.4-1.9-3.7-2.9-3.9-3v0l6.6-5.2
		c0.6-0.4,0.8-0.8,0.8-1.3v-0.1c0-0.2-0.1-0.5-0.2-0.8C139.7,87.7,139.3,87.4,138.9,87.4z"/>
	<linearGradient id="SVGID_7_" gradientUnits="userSpaceOnUse" x1="57.9746" y1="115.3965" x2="181.3146" y2="96.4731">
		<stop  offset="0" style="stop-color:#7FC4A4"/>
		<stop  offset="2.682173e-02" style="stop-color:#7DC3A6"/>
		<stop  offset="0.694" style="stop-color:#5CA8CC"/>
		<stop  offset="1" style="stop-color:#509CD6"/>
	</linearGradient>
	<path class="st7" d="M144.7,101c-0.1-0.1-0.2-0.1-0.3-0.1c-0.1,0-0.2,0-0.3,0.1l-0.8,0.8c-0.1,0.1-0.1,0.2-0.1,0.3
		c0,0.1,0,0.2,0.1,0.2l0.8,0.9c0.1,0.1,0.2,0.1,0.3,0.1c0.1,0,0.1-0.1,0.3-0.2l0.7-0.8c0.1-0.1,0.1-0.2,0.1-0.3c0-0.1,0-0.2-0.1-0.3
		L144.7,101z"/>
	<linearGradient id="SVGID_8_" gradientUnits="userSpaceOnUse" x1="57.2119" y1="110.4253" x2="180.5519" y2="91.5019">
		<stop  offset="0" style="stop-color:#7FC4A4"/>
		<stop  offset="2.682173e-02" style="stop-color:#7DC3A6"/>
		<stop  offset="0.694" style="stop-color:#5CA8CC"/>
		<stop  offset="1" style="stop-color:#509CD6"/>
	</linearGradient>
	<path class="st8" d="M155.2,87.4h-0.1c-0.1,0-0.3,0-0.4,0.1c-0.6,0.3-0.9,0.7-0.9,1.3V102c0,0.3,0.1,0.7,0.3,0.9
		c0.3,0.3,0.6,0.4,0.8,0.4h0.5c0,0,0.1,0,0.3-0.1c0.6-0.3,0.9-0.7,0.9-1.2V88.7c0-0.2-0.1-0.4-0.2-0.6
		C156.1,87.7,155.7,87.4,155.2,87.4z"/>
	<linearGradient id="SVGID_9_" gradientUnits="userSpaceOnUse" x1="57.5564" y1="112.6708" x2="180.8964" y2="93.7474">
		<stop  offset="0" style="stop-color:#7FC4A4"/>
		<stop  offset="2.682173e-02" style="stop-color:#7DC3A6"/>
		<stop  offset="0.694" style="stop-color:#5CA8CC"/>
		<stop  offset="1" style="stop-color:#509CD6"/>
	</linearGradient>
	<path class="st9" d="M176.4,87.8c-1.4-0.9-3.1-1.4-4.8-1.4c-0.7,0-1.3,0.6-1.3,1.3s0.6,1.3,1.3,1.3c1.2,0,2.3,0.3,3.3,1
		c1.7,1.1,2.7,3,2.7,5.1c0,3.4-2.7,6.1-6.1,6.1c-2,0-3.8-1-4.9-2.5c-0.4-0.6-1.3-0.7-1.9-0.3c-0.6,0.4-0.7,1.3-0.3,1.9
		c1.6,2.3,4.3,3.7,7.1,3.7c4.8,0,8.7-3.9,8.7-8.7C180.4,92.2,178.9,89.4,176.4,87.8z"/>
</g>
<g>
	<linearGradient id="SVGID_10_" gradientUnits="userSpaceOnUse" x1="26.6381" y1="125.6177" x2="175.978" y2="18.9464">
		<stop  offset="0" style="stop-color:#7FC4A4"/>
		<stop  offset="2.682173e-02" style="stop-color:#7DC3A6"/>
		<stop  offset="0.694" style="stop-color:#5CA8CC"/>
		<stop  offset="1" style="stop-color:#509CD6"/>
	</linearGradient>
	<path class="st10" d="M141,69.5c-0.1-0.2-0.3-0.4-0.5-0.3c-0.2,0-0.4,0.1-0.7,0.1c-0.3,0-0.6,0-1,0.1c-0.3,0-0.6,0-1,0
		c-0.2,0-0.3,0-0.5-0.1v-1l0,0l0-3c0.1-3,0.9-4.9,2.1-5.3c0.5-0.2,0.9-0.7,0.9-1.3s-0.4-1.2-0.9-1.3c-1.2-0.4-2-2.3-2.1-5.2v-5.2
		c0-4.2-1.6-6.6-4.7-7.4l-0.3,0c-0.6,0-1.2,0.6-1.2,1.3c0,0.6,0.4,1.2,0.9,1.3c1.7,0.4,2.8,1.4,2.9,4.8l0,5.2c0.1,2.9,0.8,5.2,2,6.5
		v0c-1.2,1.3-1.9,3.6-2,6.5v3.6c-1.8-0.6-3.5-1.7-4.9-3.2c-2.7-2.8-8.5-1.7-9.7-1.5c-1.2-0.2-7.1-1.1-9.6,1.7
		c-1.3,1.5-3,2.6-4.7,3.3l0-3.9c-0.1-2.9-0.8-5.1-2.1-6.5v0c1.3-1.4,2-3.6,2.1-6.5l0-5.2c0-3.4,1.2-4.3,2.8-4.7
		c0.5-0.1,0.9-0.7,0.9-1.3c0-0.7-0.5-1.3-1.2-1.3c0,0,0,0,0,0l-0.2,0c-3.1,0.8-4.7,3.2-4.7,7.4l0,5.1c-0.2,4-1.5,5-2.5,5.4
		c-0.5,0.2-0.8,0.7-0.8,1.2c0,0.4,0.2,1,0.8,1.2c1,0.4,2.3,1.4,2.5,5.4l0,4.3v0.2c-0.2,0-0.3,0.1-0.5,0.1c-0.3,0-0.6,0.1-1,0.1
		c-0.4,0-0.7,0-1,0c-0.2,0-0.5,0-0.7-0.1c-0.2,0-0.5,0.1-0.5,0.3c-0.1,0.2,0.1,0.5,0.3,0.5c0,0,0.4,0.1,0.9,0.3
		c0.3,0.1,0.6,0.2,1,0.3c0.3,0.1,0.6,0.2,1,0.2c0.2,0,0.4,0.1,0.6,0.1c0.3,3.4,1.8,5.4,4.6,6.1l0.2,0h0c0.6,0,1.2-0.6,1.2-1.3
		c0-0.6-0.4-1.2-0.9-1.3c-1.4-0.3-2.3-1.1-2.7-3c1.4,0.2,2.7,0.3,4,0.3c4.1,0,7.6-1,10.4-3c2.6,1.8,5.9,2.7,9.8,2.7
		c1.5,0,3.1-0.1,4.7-0.4c-0.3,2.3-1.3,3.1-2.8,3.4c-0.5,0.1-0.9,0.7-0.9,1.3c0,0.7,0.5,1.3,1.2,1.3c0,0,0,0,0,0l0.2,0
		c2.9-0.7,4.4-2.9,4.7-6.6c0.2,0,0.4-0.1,0.6-0.1c0.3-0.1,0.7-0.2,1-0.3c0.4-0.1,0.7-0.2,1-0.3c0.5-0.2,0.8-0.3,0.9-0.3
		C140.9,70,141,69.7,141,69.5z"/>
	<linearGradient id="SVGID_11_" gradientUnits="userSpaceOnUse" x1="75.8736" y1="85.9209" x2="146.9713" y2="35.1368">
		<stop  offset="0" style="stop-color:#7FC4A4"/>
		<stop  offset="2.682173e-02" style="stop-color:#7DC3A6"/>
		<stop  offset="0.694" style="stop-color:#5CA8CC"/>
		<stop  offset="1" style="stop-color:#509CD6"/>
	</linearGradient>
	<path class="st11" d="M114.6,60.4c2.6,0,4.9-1.6,5.8-3.9c0.9,2.3,3.2,3.9,5.8,3.9c3.4,0,6.2-2.8,6.2-6.2c0-3.4-2.8-6.2-6.2-6.2
		c-2.6,0-4.9,1.6-5.8,3.9c-0.9-2.3-3.2-3.9-5.8-3.9c-3.4,0-6.2,2.8-6.2,6.2C108.3,57.6,111.1,60.4,114.6,60.4z M114.6,49.1
		c2.8,0,5.1,2.3,5.1,5.1c0,2.8-2.3,5.1-5.1,5.1c-2.8,0-5.1-2.3-5.1-5.1C109.5,51.4,111.8,49.1,114.6,49.1z M126.1,59.2
		c-2.8,0-5.1-2.3-5.1-5.1c0-2.8,2.3-5.1,5.1-5.1c2.8,0,5.1,2.3,5.1,5.1C131.2,56.9,128.9,59.2,126.1,59.2z"/>
</g>
<g>
	<linearGradient id="SVGID_12_" gradientUnits="userSpaceOnUse" x1="-234.3797" y1="97.2405" x2="-111.0397" y2="78.3171">
		<stop  offset="0" style="stop-color:#7FC4A4"/>
		<stop  offset="2.682173e-02" style="stop-color:#7DC3A6"/>
		<stop  offset="0.694" style="stop-color:#5CA8CC"/>
		<stop  offset="1" style="stop-color:#509CD6"/>
	</linearGradient>
	<path class="st12" d="M-216.4,87.6c-0.2-0.1-0.4-0.2-0.7-0.2h-5.4c-0.5,0-0.8,0.2-1.1,0.7c-0.1,0.2-0.2,0.4-0.2,0.6v13.3
		c0,0.5,0.3,0.9,0.8,1.2c0.2,0.1,0.3,0.1,0.4,0.1h0.5c0.2,0,0.5-0.1,0.7-0.4c0.2-0.3,0.4-0.6,0.4-1V90.1h4c0.4,0,0.8-0.2,1.1-0.6
		c0.1-0.3,0.2-0.5,0.2-0.7C-215.7,88.3-215.9,87.9-216.4,87.6z"/>
	<linearGradient id="SVGID_13_" gradientUnits="userSpaceOnUse" x1="-235.4951" y1="89.9707" x2="-112.1551" y2="71.0473">
		<stop  offset="0" style="stop-color:#7FC4A4"/>
		<stop  offset="2.682173e-02" style="stop-color:#7DC3A6"/>
		<stop  offset="0.694" style="stop-color:#5CA8CC"/>
		<stop  offset="1" style="stop-color:#509CD6"/>
	</linearGradient>
	<path class="st13" d="M-227,87.6c-0.2-0.1-0.4-0.2-0.6-0.2h-0.1c-0.4,0-0.8,0.2-1.1,0.7c-0.1,0.2-0.2,0.5-0.2,0.7
		c0,0.5,0.2,0.9,0.7,1.2c0.2,0.1,0.4,0.1,0.6,0.1h0.1c0.5,0,0.8-0.2,1.1-0.7c0.1-0.2,0.2-0.4,0.2-0.7
		C-226.3,88.3-226.6,87.9-227,87.6z"/>
	<linearGradient id="SVGID_14_" gradientUnits="userSpaceOnUse" x1="-234.0238" y1="99.5598" x2="-110.6839" y2="80.6365">
		<stop  offset="0" style="stop-color:#7FC4A4"/>
		<stop  offset="2.682173e-02" style="stop-color:#7DC3A6"/>
		<stop  offset="0.694" style="stop-color:#5CA8CC"/>
		<stop  offset="1" style="stop-color:#509CD6"/>
	</linearGradient>
	<path class="st14" d="M-206.8,87.4h-0.1c-0.1,0-0.3,0-0.4,0.1c-0.6,0.3-0.9,0.7-0.9,1.3V102c0,0.3,0.1,0.7,0.3,0.9
		c0.3,0.3,0.6,0.4,0.8,0.4h0.5c0.1,0,0.1,0,0.3-0.1c0.6-0.3,0.9-0.7,0.9-1.2V88.7c0-0.2-0.1-0.4-0.2-0.6
		C-206,87.7-206.4,87.4-206.8,87.4z"/>
	<linearGradient id="SVGID_15_" gradientUnits="userSpaceOnUse" x1="-233.651" y1="101.99" x2="-110.311" y2="83.0666">
		<stop  offset="0" style="stop-color:#7FC4A4"/>
		<stop  offset="2.682173e-02" style="stop-color:#7DC3A6"/>
		<stop  offset="0.694" style="stop-color:#5CA8CC"/>
		<stop  offset="1" style="stop-color:#509CD6"/>
	</linearGradient>
	<path class="st15" d="M-186.8,100.7h-6.5v-12c0-0.1,0-0.3-0.1-0.5c-0.3-0.5-0.7-0.8-1.2-0.8c-0.1,0-0.2,0-0.4,0
		c-0.7,0.2-1,0.7-1,1.3v13c0,0,0,0.1,0,0.1v0.1c0,0.3,0.1,0.5,0.3,0.8c0,0,0,0,0.1,0c0,0,0,0,0,0c0,0,0.1,0.1,0.1,0.1
		c0.2,0.2,0.4,0.3,0.6,0.3h0h0.5h8c0.1,0,0.2,0,0.4-0.1c0.5-0.3,0.7-0.7,0.7-1.1V102c0-0.1,0-0.2,0-0.3
		C-185.7,101-186.1,100.7-186.8,100.7z"/>
	<linearGradient id="SVGID_16_" gradientUnits="userSpaceOnUse" x1="-233.1824" y1="105.044" x2="-109.8425" y2="86.1206">
		<stop  offset="0" style="stop-color:#7FC4A4"/>
		<stop  offset="2.682173e-02" style="stop-color:#7DC3A6"/>
		<stop  offset="0.694" style="stop-color:#5CA8CC"/>
		<stop  offset="1" style="stop-color:#509CD6"/>
	</linearGradient>
	<path class="st16" d="M-171.6,90.5c-0.7-1.5-1.1-2.2-1.2-2.3c-0.3-0.4-0.7-0.6-1.1-0.6h-0.1c-0.5,0-0.9,0.2-1.2,0.7
		c-2.4,4.7-6.5,12.9-6.6,13c-0.1,0.3-0.1,0.5-0.1,0.5c0,0.6,0.3,1,0.8,1.3c0.1,0,0.2,0.1,0.2,0.1c0,0,0,0,0,0c0.1,0,0.3,0.1,0.4,0.1
		c0.2,0,0.4-0.1,0.6-0.1c0,0,0,0,0,0c0.1-0.1,0.3-0.2,0.4-0.3c0,0,0,0,0,0c0,0,0,0,0,0c0-0.1,0.1-0.1,0.1-0.2c0-0.1,3.7-7.2,5-9.8
		c0.1-0.1,0.2-0.1,0.3-0.1c0.2,0,0.4,0.2,0.5,0.5l4.8,9.4c0.2,0.3,0.5,0.5,0.8,0.6c0,0,0.1,0,0.1,0h0.5c0.2,0,0.5-0.1,0.8-0.4
		c0.3-0.3,0.4-0.7,0.4-1.1c0-0.3-0.2-0.8-0.6-1.6C-166.7,100.3-168.4,97-171.6,90.5z"/>
	<linearGradient id="SVGID_17_" gradientUnits="userSpaceOnUse" x1="-232.7313" y1="107.9842" x2="-109.3914" y2="89.0609">
		<stop  offset="0" style="stop-color:#7FC4A4"/>
		<stop  offset="2.682173e-02" style="stop-color:#7DC3A6"/>
		<stop  offset="0.694" style="stop-color:#5CA8CC"/>
		<stop  offset="1" style="stop-color:#509CD6"/>
	</linearGradient>
	<path class="st17" d="M-150.7,87.4c-0.4,0-0.7,0.1-1,0.4c-4.4,3.5-6.8,5.3-7.1,5.5c-0.6,0.5-0.9,0.8-1.1,0.8
		c-0.5,0.3-0.7,0.7-0.7,1.2v0.1c0,0.1,0,0.3,0.1,0.5c0.1,0.4,0.4,0.6,0.7,0.8c0,0,2.6,2,7.6,6c0.5,0.4,0.9,0.7,1.2,0.7h0.5
		c0.1,0,0.2,0,0.4-0.1c0.6-0.3,0.9-0.7,0.9-1.3v0c0-0.4-0.1-0.7-0.4-1l-3.1-2.4c-2.4-1.9-3.7-2.9-3.9-3v0l6.6-5.2
		c0.6-0.4,0.8-0.8,0.8-1.3v-0.1c0-0.2-0.1-0.5-0.2-0.8C-149.8,87.7-150.2,87.4-150.7,87.4z"/>
	<linearGradient id="SVGID_18_" gradientUnits="userSpaceOnUse" x1="-231.5941" y1="115.3965" x2="-108.2541" y2="96.4731">
		<stop  offset="0" style="stop-color:#7FC4A4"/>
		<stop  offset="2.682173e-02" style="stop-color:#7DC3A6"/>
		<stop  offset="0.694" style="stop-color:#5CA8CC"/>
		<stop  offset="1" style="stop-color:#509CD6"/>
	</linearGradient>
	<path class="st18" d="M-144.8,101c-0.1-0.1-0.2-0.1-0.3-0.1c-0.1,0-0.2,0-0.3,0.1l-0.8,0.8c-0.1,0.1-0.1,0.2-0.1,0.3
		c0,0.1,0,0.2,0.1,0.2l0.8,0.9c0.1,0.1,0.2,0.1,0.3,0.1c0.1,0,0.1-0.1,0.3-0.2l0.7-0.8c0.1-0.1,0.1-0.2,0.1-0.3c0-0.1,0-0.2-0.1-0.3
		L-144.8,101z"/>
	<linearGradient id="SVGID_19_" gradientUnits="userSpaceOnUse" x1="-232.3568" y1="110.4253" x2="-109.0168" y2="91.5019">
		<stop  offset="0" style="stop-color:#7FC4A4"/>
		<stop  offset="2.682173e-02" style="stop-color:#7DC3A6"/>
		<stop  offset="0.694" style="stop-color:#5CA8CC"/>
		<stop  offset="1" style="stop-color:#509CD6"/>
	</linearGradient>
	<path class="st19" d="M-134.4,87.4h-0.1c-0.1,0-0.3,0-0.4,0.1c-0.6,0.3-0.9,0.7-0.9,1.3V102c0,0.3,0.1,0.7,0.3,0.9
		c0.3,0.3,0.6,0.4,0.8,0.4h0.5c0,0,0.1,0,0.3-0.1c0.6-0.3,0.9-0.7,0.9-1.2V88.7c0-0.2-0.1-0.4-0.2-0.6
		C-133.5,87.7-133.9,87.4-134.4,87.4z"/>
	<linearGradient id="SVGID_20_" gradientUnits="userSpaceOnUse" x1="-232.0123" y1="112.6708" x2="-108.6723" y2="93.7474">
		<stop  offset="0" style="stop-color:#7FC4A4"/>
		<stop  offset="2.682173e-02" style="stop-color:#7DC3A6"/>
		<stop  offset="0.694" style="stop-color:#5CA8CC"/>
		<stop  offset="1" style="stop-color:#509CD6"/>
	</linearGradient>
	<path class="st20" d="M-113.1,87.8c-1.4-0.9-3.1-1.4-4.8-1.4c-0.7,0-1.3,0.6-1.3,1.3s0.6,1.3,1.3,1.3c1.2,0,2.3,0.3,3.3,1
		c1.7,1.1,2.7,3,2.7,5.1c0,3.4-2.7,6.1-6.1,6.1c-2,0-3.8-1-4.9-2.5c-0.4-0.6-1.3-0.7-1.9-0.3c-0.6,0.4-0.7,1.3-0.3,1.9
		c1.6,2.3,4.3,3.7,7.1,3.7c4.8,0,8.7-3.9,8.7-8.7C-109.2,92.2-110.7,89.4-113.1,87.8z"/>
</g>
<g>
	<linearGradient id="SVGID_21_" gradientUnits="userSpaceOnUse" x1="-262.9306" y1="125.6177" x2="-113.5907" y2="18.9464">
		<stop  offset="0" style="stop-color:#7FC4A4"/>
		<stop  offset="2.682173e-02" style="stop-color:#7DC3A6"/>
		<stop  offset="0.694" style="stop-color:#5CA8CC"/>
		<stop  offset="1" style="stop-color:#509CD6"/>
	</linearGradient>
	<path class="st21" d="M-148.6,69.5c-0.1-0.2-0.3-0.4-0.5-0.3c-0.2,0-0.4,0.1-0.7,0.1c-0.3,0-0.6,0-1,0.1c-0.3,0-0.6,0-1,0
		c-0.2,0-0.3,0-0.5-0.1v-1l0,0l0-3c0.1-3,0.9-4.9,2.1-5.3c0.5-0.2,0.9-0.7,0.9-1.3s-0.4-1.2-0.9-1.3c-1.2-0.4-2-2.3-2.1-5.2v-5.2
		c0-4.2-1.6-6.6-4.7-7.4l-0.3,0c-0.6,0-1.2,0.6-1.2,1.3c0,0.6,0.4,1.2,0.9,1.3c1.7,0.4,2.8,1.4,2.9,4.8l0,5.2c0.1,2.9,0.8,5.2,2,6.5
		v0c-1.2,1.3-1.9,3.6-2,6.5v3.6c-1.8-0.6-3.5-1.7-4.9-3.2c-2.7-2.8-8.5-1.7-9.7-1.5c-1.2-0.2-7.1-1.1-9.6,1.7
		c-1.3,1.5-3,2.6-4.7,3.3l0-3.9c-0.1-2.9-0.8-5.1-2.1-6.5v0c1.3-1.4,2-3.6,2.1-6.5l0-5.2c0-3.4,1.2-4.3,2.8-4.7
		c0.5-0.1,0.9-0.7,0.9-1.3c0-0.7-0.5-1.3-1.2-1.3c0,0,0,0,0,0l-0.2,0c-3.1,0.8-4.7,3.2-4.7,7.4l0,5.1c-0.2,4-1.5,5-2.5,5.4
		c-0.5,0.2-0.8,0.7-0.8,1.2c0,0.4,0.2,1,0.8,1.2c1,0.4,2.3,1.4,2.5,5.4l0,4.3v0.2c-0.2,0-0.3,0.1-0.5,0.1c-0.3,0-0.6,0.1-1,0.1
		c-0.4,0-0.7,0-1,0c-0.2,0-0.5,0-0.7-0.1c-0.2,0-0.5,0.1-0.5,0.3c-0.1,0.2,0.1,0.5,0.3,0.5c0,0,0.4,0.1,0.9,0.3
		c0.3,0.1,0.6,0.2,1,0.3c0.3,0.1,0.6,0.2,1,0.2c0.2,0,0.4,0.1,0.6,0.1c0.3,3.4,1.8,5.4,4.6,6.1l0.2,0h0c0.6,0,1.2-0.6,1.2-1.3
		c0-0.6-0.4-1.2-0.9-1.3c-1.4-0.3-2.3-1.1-2.7-3c1.4,0.2,2.7,0.3,4,0.3c4.1,0,7.6-1,10.4-3c2.6,1.8,5.9,2.7,9.8,2.7
		c1.5,0,3.1-0.1,4.7-0.4c-0.3,2.3-1.3,3.1-2.8,3.4c-0.5,0.1-0.9,0.7-0.9,1.3c0,0.7,0.5,1.3,1.2,1.3c0,0,0,0,0,0l0.2,0
		c2.9-0.7,4.4-2.9,4.7-6.6c0.2,0,0.4-0.1,0.6-0.1c0.3-0.1,0.7-0.2,1-0.3c0.4-0.1,0.7-0.2,1-0.3c0.5-0.2,0.8-0.3,0.9-0.3
		C-148.7,70-148.6,69.7-148.6,69.5z"/>
	<linearGradient id="SVGID_22_" gradientUnits="userSpaceOnUse" x1="-213.6952" y1="85.9209" x2="-142.5974" y2="35.1368">
		<stop  offset="0" style="stop-color:#7FC4A4"/>
		<stop  offset="2.682173e-02" style="stop-color:#7DC3A6"/>
		<stop  offset="0.694" style="stop-color:#5CA8CC"/>
		<stop  offset="1" style="stop-color:#509CD6"/>
	</linearGradient>
	<path class="st22" d="M-175,60.4c2.6,0,4.9-1.6,5.8-3.9c0.9,2.3,3.2,3.9,5.8,3.9c3.4,0,6.2-2.8,6.2-6.2c0-3.4-2.8-6.2-6.2-6.2
		c-2.6,0-4.9,1.6-5.8,3.9c-0.9-2.3-3.2-3.9-5.8-3.9c-3.4,0-6.2,2.8-6.2,6.2C-181.2,57.6-178.4,60.4-175,60.4z M-175,49.1
		c2.8,0,5.1,2.3,5.1,5.1c0,2.8-2.3,5.1-5.1,5.1c-2.8,0-5.1-2.3-5.1-5.1C-180.1,51.4-177.8,49.1-175,49.1z M-163.4,59.2
		c-2.8,0-5.1-2.3-5.1-5.1c0-2.8,2.3-5.1,5.1-5.1c2.8,0,5.1,2.3,5.1,5.1C-158.4,56.9-160.6,59.2-163.4,59.2z"/>
</g>
</svg>
